<svg width="103" height="22" viewBox="0 0 103 22" fill="none" xmlns="http://www.w3.org/2000/svg">
  <g id="sb-logo">
    <path
      id="storyblok-text"
      d="M29.0285 14.9131C28.2684 14.9131 27.53 14.8018 26.7916 14.5568C26.0986 14.3265 25.4618 13.9468 24.9238 13.4431L25.9011 11.7504C26.4441 12.129 26.9653 12.4186 27.4866 12.6413C27.9861 12.864 28.4856 12.9531 28.9634 12.9531C29.3109 12.9531 29.5932 12.8863 29.7887 12.7527C29.9841 12.6413 30.071 12.4408 30.071 12.1958C30.071 11.9731 29.9624 11.7504 29.7018 11.6168C29.2936 11.4161 28.8634 11.2666 28.4204 11.1713L26.9002 10.659C26.4875 10.4808 26.1618 10.3027 25.9011 10.1022C25.6405 9.92403 25.4451 9.67903 25.3365 9.43403C25.2183 9.15284 25.1591 8.8493 25.1627 8.54312C25.15 7.66641 25.5254 6.83101 26.1835 6.2713C26.4875 6.00403 26.8785 5.80357 27.3128 5.64767C27.7472 5.49176 28.225 5.42494 28.7245 5.42494C29.3978 5.42494 30.0276 5.51403 30.614 5.69221C31.2004 5.89267 31.765 6.22676 32.308 6.71676L31.2438 8.38721C30.8234 8.07876 30.372 7.81742 29.8973 7.60767C29.4846 7.42948 29.1154 7.36267 28.7245 7.36267C28.4422 7.36267 28.1815 7.40721 27.9861 7.54085C27.7689 7.65221 27.682 7.85266 27.682 8.11994C27.682 8.38721 27.7906 8.56539 28.0078 8.69903C28.225 8.83266 28.6593 8.9663 29.2457 9.12221C29.7901 9.26284 30.3266 9.43385 30.8529 9.63448C31.2872 9.81266 31.6347 10.0131 31.9171 10.2136C32.451 10.6168 32.7461 11.2726 32.6989 11.9508C32.6989 12.864 32.3731 13.5768 31.6999 14.1113C31.0483 14.6458 30.1796 14.9131 29.0285 14.9131ZM39.779 14.2672C39.4098 14.4231 38.9754 14.579 38.4976 14.7127C38.0198 14.8463 37.542 14.9354 37.0425 14.9354C36.695 14.9354 36.391 14.8908 36.0869 14.8018C35.7913 14.7134 35.5174 14.5615 35.2834 14.3563C35.0662 14.1781 34.8924 13.9108 34.7621 13.6213C34.6318 13.3095 34.5449 12.9308 34.5449 12.4854V7.69676H33.4156V5.60312H34.5667V2.68539H37.2597V5.58085H39.084V7.69676H37.2597V11.5277C37.2597 11.8172 37.3249 12.0399 37.4769 12.1958C37.6289 12.3072 37.8244 12.374 38.0416 12.374C38.2587 12.374 38.4759 12.3518 38.6714 12.2627C38.8886 12.1958 39.084 12.129 39.2361 12.0399L39.7573 14.2672H39.779ZM44.861 14.9131C44.17 14.9255 43.4834 14.7968 42.8413 14.5345C41.7111 14.076 40.8259 13.1439 40.4088 11.9731C39.9821 10.8102 39.9821 9.52786 40.4088 8.36494C40.8259 7.19418 41.7111 6.26208 42.8413 5.80357C43.4276 5.55857 44.1009 5.42494 44.861 5.42494C46.1831 5.36112 47.467 5.88941 48.3794 6.87267C48.792 7.29585 49.0961 7.80812 49.3132 8.36494C49.7578 9.53215 49.7578 10.8282 49.3132 11.9954C48.8935 13.1517 48.0185 14.0734 46.9025 14.5345C46.2537 14.7997 45.5594 14.9285 44.861 14.9131ZM42.9064 10.1913C42.9064 10.904 43.0802 11.4831 43.4494 11.9063C43.8403 12.3518 44.3181 12.5745 44.8828 12.5745C45.4283 12.5853 45.9485 12.339 46.2944 11.9063C46.4682 11.6836 46.5985 11.4608 46.7071 11.149C46.8157 10.8595 46.8591 10.5254 46.8591 10.1913C46.8591 9.4563 46.6636 8.87721 46.2944 8.45403C45.9252 8.00857 45.4474 7.78584 44.8828 7.78584C44.3392 7.78459 43.8228 8.02903 43.4711 8.45403C43.2973 8.67676 43.1453 8.89948 43.0367 9.2113C42.9388 9.52789 42.8947 9.85939 42.9064 10.1913ZM56.654 7.9863C56.0024 7.9863 55.3943 8.09767 54.8514 8.32039C54.3734 8.48567 53.9664 8.81641 53.7003 9.25585V14.7572H50.9855V5.60312H53.4831V7.42948C53.7872 6.80585 54.1781 6.31585 54.6776 5.98176C55.1554 5.62539 55.6549 5.44721 56.1979 5.42494H56.4802L56.654 5.44721V7.96403V7.9863ZM57.8485 16.1158C58.2262 16.2505 58.6216 16.3256 59.0212 16.3386C59.347 16.3386 59.6076 16.2272 59.8031 16.0045C59.9768 15.7818 60.1289 15.3363 60.2809 14.7572L56.8929 5.60312H59.6945L61.7577 12.3518L63.5603 5.60312H66.1013L62.6916 16.2272C62.1567 18.0317 60.3636 19.1157 58.5652 18.7218C58.348 18.6772 58.0874 18.6104 57.8485 18.499V16.1158ZM72.5299 14.9133C71.8566 14.9133 71.2485 14.7795 70.749 14.4677C70.2415 14.1818 69.8207 13.7579 69.5328 13.2427V14.7572H67.1655V2.01721H69.902V7.09539C70.496 6.02932 71.6155 5.38675 72.8122 5.42494C73.3769 5.42494 73.8981 5.5363 74.3759 5.80357C74.8537 6.0263 75.2446 6.38267 75.6139 6.80585C76.6829 8.32734 76.9738 10.283 76.3957 12.0622C76.1785 12.6413 75.8745 13.1536 75.5053 13.5768C74.7427 14.4341 73.6614 14.9198 72.5299 14.9133ZM71.7698 12.5745C72.6513 12.5764 73.4367 12.0036 73.7244 11.149C74.0428 10.2518 73.8868 9.24951 73.3117 8.49857C72.9722 8.04004 72.4397 7.77525 71.8783 7.78585C71.4657 7.78585 71.0748 7.94176 70.7056 8.2313C70.3581 8.54312 70.0757 8.92176 69.8803 9.38948V11.3049C70.2308 12.0627 70.9737 12.5475 71.7915 12.5522L71.7698 12.5745ZM78.0246 2.01721H80.7393V11.4831C80.7393 12.1958 81.0217 12.5299 81.6081 12.5299C81.9181 12.5309 82.2237 12.4544 82.4985 12.3072L82.8677 14.3786C82.1071 14.7202 81.2873 14.902 80.457 14.9131C79.6751 14.9131 79.067 14.6904 78.6544 14.2895C78.22 13.844 78.0028 13.2649 78.0028 12.4631V2.01721H78.0246ZM87.9932 14.9131C87.3021 14.9255 86.6155 14.7968 85.9734 14.5345C84.8365 14.0788 83.9436 13.1468 83.5192 11.9731C82.8912 10.2226 83.2406 8.26032 84.4314 6.85039C84.8658 6.40494 85.3436 6.07085 85.9517 5.80357C86.5381 5.55857 87.2113 5.42494 87.9715 5.42494C89.2935 5.36112 90.5774 5.88941 91.4898 6.87267C91.9241 7.29585 92.2065 7.80812 92.4237 8.36494C93.0765 10.1132 92.7247 12.0889 91.5115 13.4877C91.0989 13.9331 90.5993 14.2895 89.9912 14.5345C89.3491 14.7968 88.6625 14.9255 87.9715 14.9131H87.9932ZM86.0168 10.1913C86.0168 10.904 86.1906 11.4831 86.5598 11.9063C86.9507 12.3518 87.4285 12.5745 87.9932 12.5745C88.538 12.582 89.0569 12.3364 89.4048 11.9063C89.5786 11.6836 89.7089 11.4608 89.8175 11.149C89.9261 10.8595 89.9695 10.5254 89.9695 10.1913C89.9695 9.4563 89.774 8.87721 89.4048 8.45403C89.0356 8.00857 88.5578 7.78584 87.9932 7.78584C87.4496 7.78459 86.9332 8.02903 86.5815 8.45403C86.4077 8.67676 86.2557 8.89948 86.1471 9.2113C86.0385 9.52312 86.0168 9.83494 86.0168 10.1913ZM100.112 14.7572L97.788 11.0599L96.8324 12.0845V14.7572H94.1177V2.01721H96.8324V9.38948L99.8512 5.60312H102.74L99.5255 9.54539L103 14.7572H100.112Z"
      fill="#1F1F1F"
    />
    <path
      id="b-shape"
      fill-rule="evenodd"
      clip-rule="evenodd"
      d="M0 1.71089C0 0.76599 0.76599 0 1.71089 0H17.1089C18.0538 0 18.8198 0.76599 18.8198 1.71089V17.1089C18.8198 18.0538 18.0538 18.8198 17.1089 18.8198H7.13145L4.57616 20.9297C4.24445 21.2036 3.74366 20.9676 3.74366 20.5375V18.8198H1.71089C0.76599 18.8198 0 18.0538 0 17.1089V1.71089ZM3.74233 3.10946H11.9675C13.7438 3.10946 15.1839 4.5495 15.1839 6.32587C15.1839 7.74936 14.2592 8.95687 12.9777 9.38045C14.4761 9.65447 15.6117 10.9667 15.6117 12.5443C15.6117 14.3207 14.1717 15.7607 12.3953 15.7607H3.74247V9.54229H3.74233V3.10946ZM10.583 6.00384H6.73607V7.93369H10.583C11.1159 7.93369 11.5479 7.50168 11.5479 6.96877C11.5479 6.43585 11.1159 6.00384 10.583 6.00384ZM6.73607 10.2925H10.9035C11.4956 10.2925 11.9757 10.7725 11.9757 11.3647C11.9757 11.9568 11.4956 12.4368 10.9035 12.4368H6.73607V10.2925Z"
      fill="#1F1F1F"
    />
  </g>
</svg>
